<svg width="1632" height="2565" viewBox="0 0 1632 2565" fill="none" xmlns="http://www.w3.org/2000/svg">
<rect width="1632" height="2565" fill="#2D3436"/>
<g filter="url(#filter0_d_1_19)">
<rect x="453" y="874" width="168.793" height="168.793" rx="19" fill="#55EFC4"/>
<rect x="659.195" y="874" width="313.609" height="168.793" rx="19" fill="#FF7675"/>
<rect x="1010.21" y="874" width="168.793" height="168.793" rx="19" fill="#FFEAA7"/>
<rect x="804.012" y="1080.2" width="168.793" height="168.793" rx="19" fill="#FF7675"/>
<rect x="1010.21" y="1080.2" width="168.793" height="168.793" rx="19" fill="#FFEAA7"/>
<rect x="453" y="1080.2" width="313.609" height="168.793" rx="19" fill="#55EFC4"/>
<rect x="453" y="1286.39" width="168.793" height="168.793" rx="19" fill="#55EFC4"/>
<rect x="659.195" y="1286.39" width="168.793" height="168.793" rx="19" fill="#FF7675"/>
<rect x="865.391" y="1286.39" width="313.609" height="168.793" rx="19" fill="#FFEAA7"/>
</g>
<g filter="url(#filter1_d_1_19)">
<path d="M462.482 1653.18V1544.09H534.712V1563.11H485.546V1589.1H529.918V1608.12H485.546V1653.18H462.482ZM550.226 1653.18V1544.09H573.29V1634.17H620.059V1653.18H550.226ZM635.333 1653.18V1544.09H708.842V1563.11H658.398V1589.1H705.06V1608.12H658.398V1634.17H709.055V1653.18H635.333ZM748.805 1544.09L770.805 1581.27H771.657L793.763 1544.09H819.81L786.518 1598.64L820.556 1653.18H794.029L771.657 1615.95H770.805L748.432 1653.18H722.012L756.156 1598.64L722.651 1544.09H748.805ZM869.122 1653.18V1544.09H912.801C920.827 1544.09 927.521 1545.28 932.883 1547.66C938.245 1550.04 942.276 1553.34 944.974 1557.57C947.673 1561.76 949.023 1566.59 949.023 1572.06C949.023 1576.32 948.17 1580.07 946.466 1583.3C944.761 1586.49 942.418 1589.12 939.435 1591.18C936.487 1593.2 933.114 1594.64 929.314 1595.5V1596.56C933.469 1596.74 937.357 1597.91 940.979 1600.08C944.637 1602.24 947.602 1605.28 949.875 1609.19C952.148 1613.06 953.284 1617.67 953.284 1623.03C953.284 1628.82 951.846 1633.99 948.969 1638.54C946.129 1643.05 941.92 1646.61 936.345 1649.24C930.77 1651.87 923.898 1653.18 915.731 1653.18H869.122ZM892.187 1634.33H910.99C917.418 1634.33 922.105 1633.1 925.053 1630.65C928 1628.17 929.474 1624.86 929.474 1620.74C929.474 1617.73 928.746 1615.06 927.29 1612.75C925.834 1610.45 923.756 1608.63 921.058 1607.32C918.394 1606.01 915.216 1605.35 911.523 1605.35H892.187V1634.33ZM892.187 1589.74H909.286C912.446 1589.74 915.251 1589.19 917.702 1588.09C920.188 1586.95 922.141 1585.36 923.561 1583.3C925.017 1581.24 925.745 1578.77 925.745 1575.89C925.745 1571.95 924.342 1568.77 921.537 1566.36C918.767 1563.94 914.825 1562.74 909.712 1562.74H892.187V1589.74ZM1068.54 1598.64C1068.54 1610.53 1066.29 1620.66 1061.78 1629C1057.3 1637.35 1051.19 1643.72 1043.45 1648.12C1035.75 1652.49 1027.08 1654.68 1017.46 1654.68C1007.76 1654.68 999.063 1652.47 991.357 1648.07C983.651 1643.67 977.561 1637.29 973.086 1628.95C968.612 1620.6 966.374 1610.5 966.374 1598.64C966.374 1586.74 968.612 1576.62 973.086 1568.28C977.561 1559.93 983.651 1553.57 991.357 1549.21C999.063 1544.8 1007.76 1542.6 1017.46 1542.6C1027.08 1542.6 1035.75 1544.8 1043.45 1549.21C1051.19 1553.57 1057.3 1559.93 1061.78 1568.28C1066.29 1576.62 1068.54 1586.74 1068.54 1598.64ZM1045.16 1598.64C1045.16 1590.93 1044 1584.43 1041.69 1579.14C1039.42 1573.85 1036.21 1569.84 1032.05 1567.1C1027.9 1564.37 1023.03 1563 1017.46 1563C1011.88 1563 1007.02 1564.37 1002.86 1567.1C998.708 1569.84 995.476 1573.85 993.168 1579.14C990.895 1584.43 989.759 1590.93 989.759 1598.64C989.759 1606.34 990.895 1612.84 993.168 1618.13C995.476 1623.43 998.708 1627.44 1002.86 1630.17C1007.02 1632.91 1011.88 1634.27 1017.46 1634.27C1023.03 1634.27 1027.9 1632.91 1032.05 1630.17C1036.21 1627.44 1039.42 1623.43 1041.69 1618.13C1044 1612.84 1045.16 1606.34 1045.16 1598.64ZM1102.13 1544.09L1124.12 1581.27H1124.98L1147.08 1544.09H1173.13L1139.84 1598.64L1173.88 1653.18H1147.35L1124.98 1615.95H1124.12L1101.75 1653.18H1075.33L1109.48 1598.64L1075.97 1544.09H1102.13Z" fill="white"/>
</g>
<defs>
<filter id="filter0_d_1_19" x="447" y="874" width="738" height="593.184" filterUnits="userSpaceOnUse" color-interpolation-filters="sRGB">
<feFlood flood-opacity="0" result="BackgroundImageFix"/>
<feColorMatrix in="SourceAlpha" type="matrix" values="0 0 0 0 0 0 0 0 0 0 0 0 0 0 0 0 0 0 127 0" result="hardAlpha"/>
<feOffset dy="6"/>
<feGaussianBlur stdDeviation="3"/>
<feComposite in2="hardAlpha" operator="out"/>
<feColorMatrix type="matrix" values="0 0 0 0 0 0 0 0 0 0 0 0 0 0 0 0 0 0 0.25 0"/>
<feBlend mode="normal" in2="BackgroundImageFix" result="effect1_dropShadow_1_19"/>
<feBlend mode="normal" in="SourceGraphic" in2="effect1_dropShadow_1_19" result="shape"/>
</filter>
<filter id="filter1_d_1_19" x="458.482" y="1542.6" width="719.395" height="120.074" filterUnits="userSpaceOnUse" color-interpolation-filters="sRGB">
<feFlood flood-opacity="0" result="BackgroundImageFix"/>
<feColorMatrix in="SourceAlpha" type="matrix" values="0 0 0 0 0 0 0 0 0 0 0 0 0 0 0 0 0 0 127 0" result="hardAlpha"/>
<feOffset dy="4"/>
<feGaussianBlur stdDeviation="2"/>
<feComposite in2="hardAlpha" operator="out"/>
<feColorMatrix type="matrix" values="0 0 0 0 0 0 0 0 0 0 0 0 0 0 0 0 0 0 0.25 0"/>
<feBlend mode="normal" in2="BackgroundImageFix" result="effect1_dropShadow_1_19"/>
<feBlend mode="normal" in="SourceGraphic" in2="effect1_dropShadow_1_19" result="shape"/>
</filter>
</defs>
</svg>
